<svg xmlns="http://www.w3.org/2000/svg" viewBox="0 0 110 20" width="110" height="20">
  <g fill="#FFD700">
    <polygon points="10,1 12.6,7.1 19.2,7.3 13.8,11.7 15.5,18.3 10,14.3 4.5,18.3 6.2,11.7 0.8,7.3 7.4,7.1"/>
    <polygon transform="translate(22,0)" points="10,1 12.6,7.1 19.2,7.3 13.8,11.7 15.5,18.3 10,14.3 4.5,18.3 6.2,11.7 0.8,7.3 7.4,7.1"/>
    <polygon transform="translate(44,0)" points="10,1 12.6,7.1 19.2,7.3 13.8,11.7 15.5,18.3 10,14.3 4.5,18.3 6.2,11.7 0.8,7.3 7.4,7.1"/>
    <polygon transform="translate(66,0)" points="10,1 12.6,7.1 19.2,7.3 13.8,11.7 15.5,18.3 10,14.3 4.5,18.3 6.2,11.7 0.8,7.3 7.4,7.1"/>
    <polygon transform="translate(88,0)" points="10,1 12.6,7.1 19.2,7.3 13.8,11.7 15.5,18.3 10,14.3 4.5,18.3 6.2,11.7 0.8,7.3 7.4,7.1"/>
  </g>
</svg>
